<?xml version="1.0" encoding="utf-8"?>
<!-- Generator: Adobe Illustrator 15.0.0, SVG Export Plug-In . SVG Version: 6.00 Build 0)  -->
<!DOCTYPE svg PUBLIC "-//W3C//DTD SVG 1.1//EN" "http://www.w3.org/Graphics/SVG/1.1/DTD/svg11.dtd">
<svg version="1.1" id="Layer_1" xmlns="http://www.w3.org/2000/svg" xmlns:xlink="http://www.w3.org/1999/xlink" x="0px" y="0px"
	 width="358.269px" height="358.269px" viewBox="0 0 358.269 358.269" enable-background="new 0 0 358.269 358.269"
	 xml:space="preserve">
<g>
	<circle fill="#EAA553" cx="179.134" cy="179.134" r="179.135"/>
	<circle fill="none" stroke="#2F5572" stroke-width="9" stroke-miterlimit="10" cx="179.135" cy="179.134" r="90.631"/>
	<circle fill="none" stroke="#2F5572" stroke-width="9" stroke-miterlimit="10" cx="179.135" cy="179.134" r="159.799"/>
	<g>
		<path fill="none" d="M69.884,178.595c0-60.337,48.913-109.249,109.249-109.249c60.338,0,109.25,48.912,109.25,109.249"/>
		<text transform="matrix(0.5873 -0.8094 0.8094 0.5873 81.5605 127.0312)"><tspan x="0" y="0" fill="#2F5572" font-family="'AvenirNext-Bold'" font-size="40">D</tspan><tspan x="30.378" y="0.341" fill="#2F5572" font-family="'AvenirNext-Bold'" font-size="40" rotate="14.054">E</tspan><tspan x="53.597" y="6.147" fill="#2F5572" font-family="'AvenirNext-Bold'" font-size="40" rotate="26.369">S</tspan><tspan x="74.468" y="16.989" fill="#2F5572" font-family="'AvenirNext-Bold'" font-size="40" rotate="35.892">I</tspan><tspan x="85.155" y="23.604" fill="#2F5572" font-family="'AvenirNext-Bold'" font-size="40" rotate="47.174">G</tspan><tspan x="105.73" y="45.576" fill="#2F5572" font-family="'AvenirNext-Bold'" font-size="40" rotate="62.925">N</tspan><tspan x="119.462" y="73.357" fill="#2F5572" font-family="'AvenirNext-Bold'" font-size="40" rotate="77.136">S</tspan><tspan x="124.204" y="96.48" fill="#2F5572" font-family="'AvenirNext-Bold'" font-size="40" rotate="85.965"> </tspan><tspan x="125.594" y="106.369" fill="#2F5572" font-family="'AvenirNext-Bold'" font-size="40" rotate="95.458">B</tspan><tspan x="123.179" y="132.376" fill="#2F5572" font-family="'AvenirNext-Bold'" font-size="40" rotate="109.056">Y</tspan></text>
	</g>
	<g>
		<path fill="none" d="M38.929,179.134c0,77.434,62.772,140.205,140.205,140.205c77.434,0,140.204-62.771,140.204-140.205"/>
		<text transform="matrix(0.5926 0.8055 -0.8055 0.5926 59.8555 253.6104)"><tspan x="0" y="0" fill="#2F5572" font-family="'AvenirNext-Bold'" font-size="40">J</tspan><tspan x="26.329" y="0.148" fill="#2F5572" font-family="'AvenirNext-Bold'" font-size="40" rotate="-13.251">O</tspan><tspan x="64.259" y="-10.083" fill="#2F5572" font-family="'AvenirNext-Bold'" font-size="40" rotate="-27.148">S</tspan><tspan x="89.772" y="-23.382" fill="#2F5572" font-family="'AvenirNext-Bold'" font-size="40" rotate="-40.359">H</tspan><tspan x="115.263" y="-46.673" fill="#2F5572" font-family="'AvenirNext-Bold'" font-size="40" rotate="-50.282"> </tspan><tspan x="125.694" y="-57.445" fill="#2F5572" font-family="'AvenirNext-Bold'" font-size="40" rotate="-62.505">W</tspan><tspan x="145.695" y="-99.972" fill="#2F5572" font-family="'AvenirNext-Bold'" font-size="40" rotate="-78.842">R</tspan><tspan x="151.123" y="-130.808" fill="#2F5572" font-family="'AvenirNext-Bold'" font-size="40" rotate="-91.159">E</tspan><tspan x="150.347" y="-160.265" fill="#2F5572" font-family="'AvenirNext-Bold'" font-size="40" rotate="-104.567">N</tspan></text>
	</g>
	<circle fill="none" stroke="#2F5572" stroke-width="9" stroke-miterlimit="10" cx="179.135" cy="179.134" r="62.61"/>
	<line fill="none" stroke="#2F5572" stroke-width="9" stroke-miterlimit="10" x1="92.457" y1="148.017" x2="28.602" y2="126.567"/>
	<line fill="none" stroke="#2F5572" stroke-width="9" stroke-miterlimit="10" x1="93.102" y1="214.567" x2="30.602" y2="242.067"/>
	
		<line fill="none" stroke="#2F5572" stroke-width="9" stroke-miterlimit="10" x1="265.762" y1="148.017" x2="329.618" y2="126.567"/>
	
		<line fill="none" stroke="#2F5572" stroke-width="9" stroke-miterlimit="10" x1="265.118" y1="214.567" x2="327.618" y2="242.067"/>
	<path fill="none" d="M178.752,299.236c-64.64,0-117.04-52.402-117.04-117.04c0-64.641,52.4-117.039,117.04-117.039"/>
	
		<text transform="matrix(-0.206 -0.9785 1.1449 -0.2411 65.5527 212.7393)" fill="#2F5572" font-family="'AvenirNext-Bold'" font-size="20.1531">P</text>
	
		<text transform="matrix(-0.0946 -0.9955 1.1648 -0.1106 62.873 200.0508)" fill="#2F5572" font-family="'AvenirNext-Bold'" font-size="20.1531">R</text>
	
		<text transform="matrix(-0.0162 -0.9999 1.1698 -0.019 61.7695 186.5342)" fill="#2F5572" font-family="'AvenirNext-Bold'" font-size="20.1531">I</text>
	
		<text transform="matrix(0.0851 -0.9964 1.1658 0.0996 61.4639 180.0322)" fill="#2F5572" font-family="'AvenirNext-Bold'" font-size="20.1531">N</text>
	
		<text transform="matrix(0.2022 -0.9793 1.1458 0.2366 62.9468 164.1396)" fill="#2F5572" font-family="'AvenirNext-Bold'" font-size="20.1531">T</text>
	<path fill="none" d="M176.292,320.161c76.196,0,137.966-61.766,137.966-137.963c0-76.196-61.77-137.965-137.966-137.965"/>
	
		<text transform="matrix(0.1271 -0.9919 1.0911 0.1398 311.7124 210.9785)" fill="#2F5572" font-family="'AvenirNext-Bold'" font-size="21.7826">W</text>
	
		<text transform="matrix(-0.0265 -0.9996 1.0996 -0.0292 314.3823 185.0811)" fill="#2F5572" font-family="'AvenirNext-Bold'" font-size="21.7826">E</text>
	
		<text transform="matrix(-0.1507 -0.9886 1.0874 -0.1657 313.7661 168.4004)" fill="#2F5572" font-family="'AvenirNext-Bold'" font-size="21.7826">B</text>
	<g>
		
			<circle fill="none" stroke="#2F5572" stroke-width="21" stroke-miterlimit="10" stroke-dasharray="5.0249,5.0249" cx="179.135" cy="179.134" r="76.772"/>
	</g>
	<g>
		<g>
			<path fill-rule="evenodd" clip-rule="evenodd" fill="#2F5572" d="M145.451,142.741c1.883-0.411,3.436,2.03,4.746,3.34
				c2.677,2.678,5.003,5.003,7.91,7.91c1.485,1.484,3.568,2.896,3.69,4.218c0.157,1.683-1.397,3.007-2.636,2.989
				c-1.563-0.024-3.431-2.554-4.394-3.516c-2.567-2.567-5.152-5.152-7.909-7.91c-0.911-0.909-3.573-2.959-3.691-4.218
				C143.043,144.254,144.551,142.938,145.451,142.741z"/>
			<path fill-rule="evenodd" clip-rule="evenodd" fill="#2F5572" d="M193.788,142.917c2.033-0.565,3.506,0.767,3.516,2.461
				c0.01,1.718-2.342,3.22-3.516,4.394c-2.646,2.647-5.095,5.096-7.909,7.91c-1.064,1.063-2.916,3.447-4.219,3.516
				c-1.515,0.08-2.843-1.572-2.812-2.812c0.034-1.417,2.255-3.133,3.34-4.218c3.907-3.907,7.384-7.276,11.25-11.074
				C193.441,142.922,193.651,142.957,193.788,142.917z"/>
			<path fill-rule="evenodd" clip-rule="evenodd" fill="#2F5572" d="M172.52,144.85c0.296,3.117,0.286,7.428,0,10.546
				c-0.914,1.369-3.621,1.25-4.569,0c-0.388-3.068-0.075-6.838-0.177-10.194C168.384,143.583,171.598,143.347,172.52,144.85z"/>
			<g>
				<path fill="#2F5572" d="M178.804,176.893c5.124,1.833,10.142,3.61,15.036,5.342c4.462,1.58,9.018,3.192,13.713,4.869
					c-0.078,0.033-0.158,0.067-0.237,0.101c-2.098,0.885-4.267,1.8-6.72,2.873c-0.128,0.057-0.275,0.116-0.43,0.18
					c-1.328,0.545-3.147,1.292-4.698,2.769c-2.117,2.023-3.187,4.841-4.13,7.326c-0.163,0.429-0.365,0.963-0.459,1.172
					c-0.646,1.446-1.217,2.77-1.771,4.075c-2.05-5.682-4.058-11.286-6.022-16.77C181.684,184.92,180.256,180.932,178.804,176.893
					 M169.196,165.312c-0.275,0-0.518,0.032-0.72,0.104c-2.354,0.835-1.029,3.574-0.351,5.448
					c5.715,15.793,10.958,30.624,16.699,46.402c0.881,2.424,1.93,5.15,4.194,5.15c0.176,0,0.359-0.017,0.551-0.051
					c1.394-0.252,2.65-3.712,3.34-5.275c2.054-4.661,3.362-8.028,5.272-12.302c0.684-1.531,1.697-4.913,2.812-5.978
					c0.578-0.551,1.974-1.038,2.813-1.406c5.594-2.448,9.762-4.088,15.116-6.504c1.522-0.687,4.975-1.923,5.273-3.34
					c0.582-2.768-2.255-3.78-4.922-4.745c-15.119-5.472-28.343-10.046-42.889-15.292
					C174.54,166.859,171.103,165.312,169.196,165.312L169.196,165.312z"/>
			</g>
			<path fill-rule="evenodd" clip-rule="evenodd" fill="#2F5572" d="M155.822,167.349c1.278,0.787,1.393,3.621,0.175,4.57
				c-3.181,0.291-7.54,0.291-10.721,0c-1.395-1.443-1.275-4.201,0.701-4.746C148.557,166.463,153.331,167.58,155.822,167.349z"/>
			<path fill-rule="evenodd" clip-rule="evenodd" fill="#2F5572" d="M158.458,178.6c1.879-0.567,3.536,0.936,3.516,2.459
				c-0.017,1.365-2.339,3.218-3.34,4.218c-2.849,2.85-4.658,4.659-7.558,7.56c-1.066,1.066-2.812,3.267-4.042,3.34
				c-1.569,0.091-2.798-1.461-2.812-2.637c-0.018-1.409,2.044-2.924,3.164-4.044c3.508-3.507,7.081-8.095,10.723-10.721
				C158.221,178.692,158.306,178.643,158.458,178.6z"/>
		</g>
	</g>
</g>
</svg>
