<?xml version="1.0" encoding="utf-8"?>
<!-- Generator: Adobe Illustrator 15.0.0, SVG Export Plug-In . SVG Version: 6.00 Build 0)  -->
<!DOCTYPE svg PUBLIC "-//W3C//DTD SVG 1.1//EN" "http://www.w3.org/Graphics/SVG/1.1/DTD/svg11.dtd">
<svg version="1.1" id="Layer_1" xmlns="http://www.w3.org/2000/svg" xmlns:xlink="http://www.w3.org/1999/xlink" x="0px" y="0px"
	 width="75.098px" height="42.188px" viewBox="-14.244 0.159 75.098 42.188" enable-background="new -14.244 0.159 75.098 42.188"
	 xml:space="preserve">
<path fill-rule="evenodd" clip-rule="evenodd" d="M23.709,6.901c3.289-2.307,8.877-2.009,12.334-0.388
	c3.502,1.641,5.999,4.634,7.188,8.255c4.958-1.723,10.43,0.527,13.111,2.915c2.534,2.256,4.865,6.379,4.469,11.849
	c-0.493,6.767-5.687,11.878-12.53,12.53c-3.665,0.349-7.979,0.096-12.432,0.096c-4.076,0-8.318,0-12.433,0
	c-8.896,0-17.691,0.483-24.863-0.096c-3.805-0.309-6.448-1.713-8.645-3.885c-1.947-1.927-3.771-4.989-4.079-8.354
	c-0.386-4.208,0.813-7.487,2.428-9.809c2.111-3.038,5.339-5.249,10.198-5.731C-1.304,6.521,3.883,0.737,11.179,0.2
	C17.335-0.253,21.211,3.124,23.709,6.901z"/>
</svg>
