<?xml version="1.0" encoding="utf-8"?>
<!-- Generator: Adobe Illustrator 15.0.0, SVG Export Plug-In . SVG Version: 6.00 Build 0)  -->
<!DOCTYPE svg PUBLIC "-//W3C//DTD SVG 1.1//EN" "http://www.w3.org/Graphics/SVG/1.1/DTD/svg11.dtd">
<svg version="1.1" id="Layer_1" xmlns="http://www.w3.org/2000/svg" xmlns:xlink="http://www.w3.org/1999/xlink" x="0px" y="0px"
	 width="42.58px" height="42px" viewBox="-0.285 0.005 42.58 42" enable-background="new -0.285 0.005 42.58 42"
	 xml:space="preserve">
<path fill="#FFFFFF" d="M27.779,41.424h-0.193l-0.194-0.194v-1.16V35.23c0-1.354-0.193-2.515-0.772-3.483
	c4.45-0.774,9.289-3.098,9.289-11.807c0-2.323-0.775-4.452-2.13-6.193c0.388-1.162,0.582-3.29-0.386-6l-0.582-0.58
	c0,0-0.386-0.194-0.773-0.194c-1.162,0-2.903,0.387-5.806,2.323c-1.549-0.194-3.291-0.581-5.227-0.581s-3.677,0.193-5.418,0.581
	C12.876,7.554,10.94,7.167,9.78,7.167c-0.388,0-0.582,0.193-0.775,0.193c-0.192,0-0.58,0.387-0.58,0.581
	c-0.968,2.709-0.774,4.838-0.388,6c-1.354,1.741-2.128,3.871-2.128,6.193c0,8.515,5.031,10.838,9.29,11.806
	c-0.194,0.388-0.388,0.967-0.581,1.548c-0.387,0.194-0.968,0.388-1.742,0.388c-0.773,0-1.548-0.193-2.129-0.774l-0.193-0.194
	c-0.193-0.191-0.193-0.386-0.388-0.386l-0.193-0.193L9.78,32.135c0-0.194-1.55-2.518-4.259-2.71c-0.968,0-1.741,0.387-1.936,0.968
	c-0.388,0.967,0.774,1.742,1.355,2.129c0,0,1.16,0.58,1.936,2.709c0.386,1.355,2.128,3.872,6.192,3.872h1.355v2.709l-0.193,0.193
	c0,0-0.194,0,0,0c-8.71-3.483-14.517-11.612-14.517-20.71c0-11.806,9.483-21.29,21.29-21.29c11.806,0,21.29,9.484,21.29,21.29
	C42.295,30.393,36.489,38.521,27.779,41.424z"/>
</svg>
