<?xml version="1.0" encoding="utf-8"?>
<!-- Generator: Adobe Illustrator 15.0.0, SVG Export Plug-In . SVG Version: 6.00 Build 0)  -->
<!DOCTYPE svg PUBLIC "-//W3C//DTD SVG 1.1//EN" "http://www.w3.org/Graphics/SVG/1.1/DTD/svg11.dtd">
<svg version="1.1" id="Layer_1" xmlns="http://www.w3.org/2000/svg" xmlns:xlink="http://www.w3.org/1999/xlink" x="0px" y="0px"
	 width="64px" height="60.499px" viewBox="0 0 64 60.499" enable-background="new 0 0 64 60.499" xml:space="preserve">
<g>
	<path fill="#D59541" d="M31.292,59.317h9.679c1.35,0,0-0.965,0-0.965c-3.087-1.544-2.797-6.22-2.797-6.22h-6.882H31.06h-6.883
		c0,0,0.29,4.676-2.796,6.22c0,0-1.351,0.965,0,0.965h9.679H31.292z"/>
	<g>
		<path fill="#D59541" d="M27.371,20.881c1.007,0,1.973,0.17,2.879,0.473v-6.303H12.568v17.682h6.1
			c-0.271-0.862-0.418-1.78-0.418-2.731C18.25,24.973,22.342,20.881,27.371,20.881z"/>
		<path fill="#D59541" d="M29.45,31.248h-3.031l1.515-2.625l2.315-4.011l0.631-1.093c-0.205-0.111-0.415-0.212-0.631-0.304
			c-0.885-0.375-1.857-0.584-2.879-0.584c-4.071,0-7.371,3.3-7.371,7.371c0,0.966,0.191,1.885,0.528,2.731
			c1.085,2.718,3.737,4.641,6.843,4.641c3.645,0,6.664-2.648,7.257-6.125H30.25H29.45z"/>
		<path fill="#D59541" d="M36.58,17.148l-3.377,5.85l-0.447,0.774l-0.445,0.771l-2.061,3.57l-0.8,1.385h0.8h4.466h0.337
			c0.115-0.388,0.245-0.766,0.4-1.125c0.175-0.404,0.379-0.786,0.602-1.152c0.98-1.614,2.414-2.857,4.236-3.646L36.58,17.148z"/>
	</g>
	<path fill="#D59541" d="M60.011,13.341c-1.054,1.793-2.086,3.518-3.2,5.176v23.394H5.686V9.894h43.866
		C49.626,9.795,49.7,9.7,49.774,9.601c0.671-0.892,1.364-1.814,2.138-2.715l0.149-0.175c0.303-0.353,0.608-0.708,0.916-1.061H4.143
		c-1.592,0-2.893,1.302-2.893,2.893v38.381c0,1.592,1.301,2.894,2.893,2.894h54.21c1.591,0,2.893-1.302,2.893-2.894v-35.67
		c-0.148,0.252-0.297,0.503-0.439,0.741L60.011,13.341z"/>
	<path fill="#D59541" d="M62.372,1.37c-0.373-0.325-1.142-0.164-1.453,0c-2.052,1.076-3.7,2.594-5.257,4.28
		c-0.754,0.817-1.487,1.67-2.232,2.538c-0.479,0.558-0.927,1.131-1.365,1.706c-0.596,0.779-1.173,1.562-1.766,2.319
		c-1.082,1.382-2.328,2.629-3.018,4.136c1.188,2.055,2.797,3.686,5.59,4.136c1.483-1.766,2.712-3.657,3.939-5.685
		c0.614-1.014,1.229-2.052,1.873-3.146c0.722-1.226,1.558-2.572,2.339-4.217c0.077-0.162,0.156-0.31,0.231-0.478
		C61.611,6.166,63.557,2.402,62.372,1.37z"/>
	<path fill="#D59541" d="M51.193,22.719c-2.645-0.522-4.232-2.101-5.477-4.023c-1.213,1.544-1.861,3.653-2.236,6.036
		c-0.154,0.024-0.293,0.069-0.443,0.098c-0.304,0.061-0.611,0.116-0.896,0.199c-0.292,0.085-0.561,0.199-0.832,0.308
		c-1.962,0.787-3.381,2.191-4.131,4.161c-0.107,0.282-0.208,0.57-0.287,0.875c-0.073,0.283-0.139,0.572-0.188,0.875
		c-0.011,0.066-0.031,0.125-0.041,0.191c-0.234,1.665-0.119,2.958-0.895,4.136c-0.57,0.867-1.604,1.113-1.789,2.348
		c3.398,1.704,6.797-0.313,9.055-2.571c1.135-1.134,2.178-2.519,2.781-4.103c0.13-0.34,0.238-0.689,0.323-1.047
		c0.257-1.078,0.301-2.233,0.026-3.458C48.139,25.7,49.908,24.453,51.193,22.719z"/>
</g>
</svg>
