<?xml version="1.0" encoding="utf-8"?>
<!-- Generator: Adobe Illustrator 15.0.0, SVG Export Plug-In . SVG Version: 6.00 Build 0)  -->
<!DOCTYPE svg PUBLIC "-//W3C//DTD SVG 1.1//EN" "http://www.w3.org/Graphics/SVG/1.1/DTD/svg11.dtd">
<svg version="1.1" id="Layer_1" xmlns="http://www.w3.org/2000/svg" xmlns:xlink="http://www.w3.org/1999/xlink" x="0px" y="0px"
	 width="72.766px" height="64px" viewBox="0 0 72.766 64" enable-background="new 0 0 72.766 64" xml:space="preserve">
<g>
	<path fill="#D59541" d="M70.098,13.762H48.683c-0.293,0.568-0.586,1.114-0.878,1.642c-0.313,0.568-0.625,1.116-0.931,1.642
		c-0.335,0.574-0.663,1.132-0.979,1.662l-0.587,0.992c-0.478,0.81-0.941,1.595-1.403,2.373c-0.329,0.555-0.656,1.099-0.981,1.642
		c-0.281,0.47-0.564,0.947-0.846,1.411c-0.046,0.076-0.097,0.155-0.143,0.231h28.162c1.471,0,2.668-1.197,2.668-2.668V16.43
		C72.766,14.959,71.569,13.762,70.098,13.762z M69.483,22.072H52.451v-5.027h17.032V22.072z"/>
	<path fill="#D59541" d="M70.098,29.306H39.437c-0.361,0.547-0.735,1.092-1.118,1.642c-0.382,0.547-0.762,1.095-1.168,1.642
		c-0.674,0.907-1.378,1.812-2.129,2.706l-0.241,0.287l-1.508,2.034l-0.993,1.34c-0.076,0.103-0.159,0.2-0.237,0.302
		c-0.434,0.564-0.895,1.112-1.392,1.642h39.447c1.471,0,2.668-1.197,2.668-2.668v-6.258C72.766,30.503,71.569,29.306,70.098,29.306z
		 M69.483,37.616h-4.515v-5.027h4.515V37.616z"/>
	<path fill="#D59541" d="M70.098,44.645H29.57c-1.471,0-2.667,1.196-2.667,2.667v6.26c0,1.471,1.197,2.667,2.667,2.667h40.528
		c1.471,0,2.668-1.196,2.668-2.667v-6.26C72.766,45.841,71.569,44.645,70.098,44.645z M69.483,52.955H56.829v-5.027h12.654V52.955z"
		/>
	<path fill="#D59541" d="M27.11,30.946c0.449,0.318,0.927,0.606,1.435,0.866c0.586,0.299,1.206,0.565,1.88,0.776
		c0.606,0.19,1.239,0.353,1.925,0.463c0.127-0.151,0.242-0.31,0.367-0.463c0.444-0.542,0.881-1.086,1.301-1.642
		c0.408-0.539,0.799-1.09,1.188-1.642c0.905-1.282,1.779-2.596,2.628-3.95c0.34-0.542,0.678-1.088,1.015-1.642
		c0.082-0.134,0.164-0.262,0.246-0.397c0.248-0.409,0.498-0.831,0.746-1.245c0.807-1.344,1.617-2.71,2.461-4.143
		c0.169-0.287,0.349-0.589,0.524-0.885c0.314-0.53,0.635-1.078,0.964-1.642c0.309-0.528,0.618-1.076,0.932-1.642
		c0.531-0.958,1.064-1.958,1.585-3.052c0.132-0.277,0.268-0.531,0.396-0.817c0.611-1.358,3.942-7.802,1.914-9.57
		c-0.639-0.557-1.955-0.28-2.487,0c-3.514,1.842-6.337,4.441-9.002,7.33c-1.291,1.399-2.546,2.859-3.823,4.345
		c-0.498,0.58-0.972,1.17-1.439,1.765c-0.302,0.384-0.604,0.77-0.898,1.156c-0.124,0.162-0.244,0.323-0.367,0.485
		c-0.689,0.908-1.372,1.81-2.056,2.702c-0.2,0.261-0.398,0.526-0.6,0.783c-0.34,0.435-0.69,0.86-1.042,1.283
		c-1.562,1.881-3.162,3.692-4.125,5.799C23.915,27.937,25.294,29.66,27.11,30.946z"/>
	<path fill="#D59541" d="M27.191,39.412c0.471-0.441,0.927-0.897,1.354-1.384c0.324-0.37,0.637-0.751,0.932-1.149
		c-0.327-0.064-0.624-0.158-0.932-0.241c-0.576-0.155-1.125-0.338-1.642-0.553c-3.038-1.261-5.114-3.484-6.804-6.095
		c-2.077,2.644-3.187,6.256-3.83,10.336c-0.264,0.04-0.501,0.117-0.759,0.168c-0.52,0.104-1.046,0.197-1.535,0.34
		c-0.5,0.146-0.959,0.34-1.424,0.527c-3.359,1.348-5.789,3.752-7.073,7.125c-0.184,0.483-0.356,0.977-0.491,1.498
		c-0.125,0.485-0.238,0.98-0.321,1.498c-0.019,0.113-0.054,0.214-0.071,0.328c-0.401,2.851-0.204,5.064-1.531,7.081
		C2.087,60.377,0.318,60.798,0,62.912c5.819,2.918,11.638-0.537,15.504-4.403c1.943-1.942,3.729-4.312,4.762-7.026
		c0.222-0.581,0.408-1.179,0.554-1.793c0.439-1.846,0.515-3.824,0.045-5.919C23.195,42.538,25.351,41.133,27.191,39.412z"/>
</g>
</svg>
