<?xml version="1.0" encoding="utf-8"?>
<!-- Generator: Adobe Illustrator 15.0.0, SVG Export Plug-In . SVG Version: 6.00 Build 0)  -->
<!DOCTYPE svg PUBLIC "-//W3C//DTD SVG 1.1//EN" "http://www.w3.org/Graphics/SVG/1.1/DTD/svg11.dtd">
<svg version="1.1" id="Layer_1" xmlns="http://www.w3.org/2000/svg" xmlns:xlink="http://www.w3.org/1999/xlink" x="0px" y="0px"
	 width="74.054px" height="60px" viewBox="0 0 74.054 60" enable-background="new 0 0 74.054 60" xml:space="preserve">
<g>
	<path fill-rule="evenodd" clip-rule="evenodd" fill="#FFFFFF" d="M25.39,0c7.758,0,15.517,0,23.273,0
		c1.731,0.24,3.231,1.551,3.477,3.174c0.265,1.746-0.13,4.015-0.075,6.195c-1.763,0-3.525,0-5.289,0
		c-0.181-1.074,0.383-3.302-0.379-4.004c-0.607-0.562-3.221-0.302-4.534-0.302c-3.52,0-6.388,0-9.747,0
		c-1.48,0-4.003-0.23-4.535,0.377C26.948,6.167,27.645,8.33,27.28,9.37c-1.764-0.049-3.729,0.101-5.365-0.076
		c0.254-2.36-0.443-5.019,0.227-6.8C22.693,1.022,23.769,0.368,25.39,0z"/>
	<path fill-rule="evenodd" clip-rule="evenodd" fill="#FFFFFF" d="M0,12.921c24.686,0,49.37,0,74.054,0c0,2.972,0,5.945,0,8.917
		c-0.825,3.583-3.927,5.635-7.406,7.104c-8.149,3.438-19.062,4.382-30.301,4.382c-7.238,0-14.653-0.758-20.932-2.191
		c-2.944-0.672-5.986-1.562-8.689-2.871C3.638,26.767,0.75,24.991,0,21.461C0,18.614,0,15.768,0,12.921z"/>
	<path fill-rule="evenodd" clip-rule="evenodd" fill="#FFFFFF" d="M72.619,60c-23.727,0-47.456,0-71.183,0
		c0-9.623,0-19.245,0-28.867c4.264,2.686,9.726,4.447,15.793,5.592c18.139,3.423,42.927,2.281,55.39-5.215
		C72.619,41.007,72.619,50.504,72.619,60z M32.947,42.469c-0.02,2.4-0.191,4.31,0.982,5.666c1.409,1.632,4.439,1.833,6.045,0.151
		c1.179-1.233,1.257-3.379,1.133-6.045c-2.695,0-5.391,0-8.085,0C32.935,42.254,32.941,42.361,32.947,42.469z"/>
</g>
</svg>
