<?xml version="1.0" encoding="utf-8"?>
<!-- Generator: Adobe Illustrator 15.0.0, SVG Export Plug-In . SVG Version: 6.00 Build 0)  -->
<!DOCTYPE svg PUBLIC "-//W3C//DTD SVG 1.1//EN" "http://www.w3.org/Graphics/SVG/1.1/DTD/svg11.dtd">
<svg version="1.1" id="Layer_1" xmlns="http://www.w3.org/2000/svg" xmlns:xlink="http://www.w3.org/1999/xlink" x="0px" y="0px"
	 width="55px" height="87.562px" viewBox="0 0 55 87.562" enable-background="new 0 0 55 87.562" xml:space="preserve">
<g>
	<path fill="#2F5572" d="M26.776,0.074c0.322-0.062,1.453-0.174,2.17,0.107c1.809,0.708,1.729,2.73,4.125,2.933
		c1.408,0.117,2.905-1.181,4.45-1.087c0.716,0.044,2.078,0.642,2.604,1.303c0.524,0.662,0.662,2.045,1.084,2.822
		c0.391,0.712,1.349,1.574,2.172,1.736c0.941,0.187,1.824-0.139,2.605,0c1.145,0.204,2.703,1.429,2.932,2.931
		c0.182,1.202-0.314,2.012-0.217,2.931c0.09,0.855,0.561,1.646,0.977,2.062c0.798,0.797,2.104,0.783,3.039,1.628
		c0.691,0.624,1.309,1.772,1.193,3.148c-0.146,1.801-1.947,2.626-1.41,4.885c0.508,2.135,2.433,2.173,2.496,4.45
		c0.021,0.763-0.181,1.565-0.65,2.28c-0.848,1.285-3.59,1.803-3.04,4.884c0.146,0.816,0.778,2.095,0.543,3.365
		c-0.121,0.654-0.966,1.943-1.845,2.389c-1.114,0.562-2.049,0.375-2.715,0.651c-0.771,0.318-1.635,0.974-1.955,2.062
		c-0.232,0.794,0.039,1.891-0.324,2.822c-0.315,0.811-1.497,1.977-2.604,2.172c-1.613,0.282-2.191-0.481-3.476-0.437
		c-3.841,0.144-2.587,4.583-6.513,4.562c-2.14-0.014-2.539-1.987-4.667-2.063c-2.39-0.084-3.03,2.02-5.102,2.063
		c-1.005,0.021-1.697-0.193-2.497-0.869c-1.162-0.981-1.337-2.865-2.93-3.474c-1.554-0.595-2.797,0.545-4.668,0.218
		c-1.12-0.196-2.337-1.409-2.604-2.28c-0.346-1.125-0.064-1.956-0.326-2.714c-0.378-1.092-1.125-1.75-1.845-2.062
		c-0.833-0.361-1.731-0.108-2.822-0.651c-0.973-0.484-1.721-1.751-1.845-2.605c-0.283-1.938,1.083-2.814,0.543-4.884
		c-0.457-1.748-2.806-2.339-3.365-3.689c-0.324-0.784-0.401-1.672-0.109-2.714c0.5-1.783,2.76-2.025,2.389-4.885
		c-0.172-1.325-1.184-1.947-1.411-3.039c-0.309-1.479,0.396-3.113,1.303-3.799c0.681-0.516,1.658-0.563,2.388-1.085
		c0.436-0.312,1.071-0.862,1.303-1.628c0.37-1.225-0.252-2.552,0-3.8C6.404,9.47,7.51,8.158,8.974,7.889
		c0.717-0.131,1.56,0.191,2.497,0c0.785-0.16,1.8-0.822,2.279-1.628c0.549-0.923,0.438-1.917,0.869-2.604
		c0.45-0.721,1.587-1.578,2.931-1.629c1.956-0.072,2.956,1.567,5.101,0.868c0.729-0.236,1.019-0.554,1.52-1.085
		C24.855,1.084,25.455,0.326,26.776,0.074z M20.589,10.929c-4.499,1.806-7.876,5.578-9.552,9.661
		c-1.435,3.491-1.582,7.458-0.761,10.963c1.389,5.927,5.391,9.977,10.421,12.048c11.155,4.596,21.886-2.804,23.989-12.265
		c1.332-5.994-0.896-12.062-3.475-15.197c-3.233-3.933-8.094-6.93-15.196-6.404C24.161,9.872,22.268,10.255,20.589,10.929z"/>
	<path fill="#2F5572" d="M7.998,51.743c1.523,1.812,4.854,2.979,7.923,1.955c1.09,2.783,3.601,4.717,7.49,4.34
		c-2.317,9.915-4.756,19.704-7.164,29.524c-2.163-2.795-4.292-5.621-6.404-8.467c-3.209,1.495-6.341,3.068-9.552,4.561
		C2.803,72.96,5.418,62.371,7.998,51.743z"/>
	<path fill="#2F5572" d="M46.749,51.743c2.783,10.46,5.242,21.247,7.815,31.913c-3.169-1.499-6.353-2.982-9.444-4.561
		c-1.959,2.29-3.777,5.021-5.752,7.491c-0.209,0.259-0.387,0.879-0.869,0.76c-2.287-9.797-4.771-19.397-7.056-29.2
		c3.914,0.312,6.417-1.672,7.599-4.448C41.975,54.69,45.372,53.608,46.749,51.743z"/>
</g>
</svg>
