<?xml version="1.0" encoding="utf-8"?>
<!-- Generator: Adobe Illustrator 15.0.0, SVG Export Plug-In . SVG Version: 6.00 Build 0)  -->
<!DOCTYPE svg PUBLIC "-//W3C//DTD SVG 1.1//EN" "http://www.w3.org/Graphics/SVG/1.1/DTD/svg11.dtd">
<svg version="1.1" id="Layer_1" xmlns="http://www.w3.org/2000/svg" xmlns:xlink="http://www.w3.org/1999/xlink" x="0px" y="0px"
	 width="87.229px" height="110px" viewBox="0 0 87.229 110" enable-background="new 0 0 87.229 110" xml:space="preserve">
<g>
	<path fill-rule="evenodd" clip-rule="evenodd" fill="#D59541" d="M38.5,62.93c1.983,2.387,4.464,5.178,3.936,10.333
		c-0.448,4.364-3.985,8.356-6.888,11.315c-8.827,9.009-19.376,18.438-28.7,25.423c0.44-10.159,0.881-21.801,2.296-32.31
		c1.477-10.971,3.301-23.029,16.401-20.993c-0.537-0.72-1.411-0.956-2.132-1.312 M16.688,92.288
		c5.666-4.432,11.217-9.417,16.237-14.435c1.823-1.822,4.038-4.077,4.919-6.231c1.462-3.571-0.126-7.507-2.132-9.02
		c-0.919-0.693-2.411-1.145-4.099-1.968c-2.113-1.03-3.558-2.312-5.905-2.296c-8.278,0.055-8.707,10.094-9.513,18.041
		c-0.572,5.66-0.717,11.482-0.983,16.729C15.801,93.194,16.248,92.63,16.688,92.288z"/>
	<g>
		<path fill-rule="evenodd" clip-rule="evenodd" fill="#D59541" d="M48.938,0.215c7.039,3.517,14.077,7.036,21.113,10.552
			c1.464,1.003,2.228,2.874,1.713,4.458c-0.55,1.703-1.937,3.582-2.873,5.586c-1.601-0.8-3.2-1.599-4.801-2.399
			c0.322-1.057,1.846-2.822,1.473-3.805c-0.295-0.784-2.784-1.734-3.977-2.33c-3.191-1.596-5.797-2.897-8.843-4.42
			c-1.342-0.671-3.527-2.023-4.285-1.713c-0.903,0.372-1.252,2.65-2.055,3.427c-1.577-0.845-3.427-1.599-4.832-2.5
			c1.3-2.027,1.872-4.755,3.289-6.067C46.027-0.081,47.301-0.186,48.938,0.215z"/>
		<path fill-rule="evenodd" clip-rule="evenodd" fill="#D59541" d="M20.045,0.424C42.44,11.617,64.833,22.81,87.229,34.002
			c-1.351,2.697-2.696,5.395-4.045,8.09c-2.374,2.875-6.116,3.332-9.939,3.087c-8.951-0.576-19.281-4.668-29.476-9.764
			c-6.567-3.281-12.951-7.332-17.997-11.478c-2.366-1.946-4.722-4.133-6.582-6.544c-2.123-2.758-3.938-5.678-3.018-9.221
			C17.463,5.589,18.754,3.008,20.045,0.424z"/>
		<path fill-rule="evenodd" clip-rule="evenodd" fill="#D59541" d="M64.577,76.063C43.054,65.304,21.527,54.544,0,43.786
			c4.363-8.731,8.727-17.459,13.089-26.188c2.652,4.369,6.809,8.444,11.792,12.234c14.903,11.33,37.91,21.533,52.615,20.383
			C73.192,58.832,68.884,67.449,64.577,76.063z M36.537,42.169c-1.105,2.17-2.128,3.823-1.678,5.586
			c0.539,2.119,3.197,3.677,5.416,2.878c1.63-0.585,2.673-2.494,3.77-4.97c-2.445-1.223-4.89-2.444-7.335-3.667
			C36.625,41.97,36.58,42.07,36.537,42.169z"/>
	</g>
</g>
</svg>
