<?xml version="1.0" encoding="utf-8"?>
<!-- Generator: Adobe Illustrator 15.0.0, SVG Export Plug-In . SVG Version: 6.00 Build 0)  -->
<!DOCTYPE svg PUBLIC "-//W3C//DTD SVG 1.1//EN" "http://www.w3.org/Graphics/SVG/1.1/DTD/svg11.dtd">
<svg version="1.1" id="Layer_1" xmlns="http://www.w3.org/2000/svg" xmlns:xlink="http://www.w3.org/1999/xlink" x="0px" y="0px"
	 width="42.01px" height="42.01px" viewBox="0 0 42.01 42.01" enable-background="new 0 0 42.01 42.01" xml:space="preserve">
<path fill="#FFFFFF" d="M33.255,0.005h-24.5c-4.833,0-8.75,3.919-8.75,8.75v24.5c0,4.831,3.917,8.75,8.75,8.75h24.5
	c4.833,0,8.75-3.919,8.75-8.75v-24.5C42.005,3.924,38.088,0.005,33.255,0.005z M14.005,33.255h-5.25v-19.25h5.25V33.255z
	 M11.38,11.787c-1.69,0-3.062-1.384-3.062-3.088c0-1.704,1.372-3.086,3.062-3.086s3.062,1.382,3.062,3.086
	C14.442,10.402,13.071,11.787,11.38,11.787z M35.005,33.255h-5.25v-9.806c0-5.896-7-5.449-7,0v9.806h-5.25v-19.25h5.25v3.09
	c2.443-4.525,12.25-4.86,12.25,4.332V33.255z"/>
</svg>
