<?xml version="1.0" encoding="utf-8"?>
<!-- Generator: Adobe Illustrator 15.0.0, SVG Export Plug-In . SVG Version: 6.00 Build 0)  -->
<!DOCTYPE svg PUBLIC "-//W3C//DTD SVG 1.1//EN" "http://www.w3.org/Graphics/SVG/1.1/DTD/svg11.dtd">
<svg version="1.1" id="Layer_1" xmlns="http://www.w3.org/2000/svg" xmlns:xlink="http://www.w3.org/1999/xlink" x="0px" y="0px"
	 width="55.001px" height="87.563px" viewBox="0 0 55.001 87.563" enable-background="new 0 0 55.001 87.563" xml:space="preserve">
<g>
	<path fill-rule="evenodd" clip-rule="evenodd" fill="#D59541" d="M26.776,0.074c0.322-0.061,1.453-0.173,2.17,0.108
		c1.809,0.708,1.728,2.73,4.125,2.932c1.408,0.118,2.905-1.18,4.45-1.086c0.716,0.044,2.078,0.641,2.605,1.302
		c0.524,0.662,0.661,2.045,1.084,2.823c0.39,0.711,1.348,1.574,2.171,1.736c0.942,0.186,1.824-0.139,2.606,0
		c1.145,0.204,2.703,1.429,2.932,2.931c0.181,1.202-0.315,2.011-0.218,2.93c0.091,0.856,0.561,1.647,0.977,2.063
		c0.798,0.797,2.103,0.783,3.04,1.628c0.691,0.624,1.308,1.772,1.193,3.148c-0.147,1.801-1.948,2.626-1.411,4.885
		c0.509,2.135,2.433,2.173,2.497,4.45c0.021,0.763-0.181,1.565-0.651,2.28c-0.847,1.285-3.59,1.803-3.04,4.884
		c0.146,0.817,0.779,2.095,0.543,3.365c-0.121,0.655-0.965,1.944-1.845,2.389c-1.114,0.562-2.048,0.375-2.715,0.651
		c-0.77,0.319-1.634,0.974-1.954,2.062c-0.233,0.794,0.038,1.891-0.325,2.822c-0.315,0.811-1.497,1.977-2.604,2.172
		c-1.613,0.282-2.19-0.481-3.475-0.436c-3.841,0.143-2.587,4.583-6.512,4.561c-2.14-0.014-2.54-1.987-4.668-2.063
		c-2.39-0.084-3.03,2.019-5.102,2.063c-1.005,0.021-1.697-0.193-2.497-0.869c-1.162-0.982-1.337-2.865-2.93-3.474
		c-1.554-0.594-2.797,0.545-4.668,0.218c-1.12-0.196-2.337-1.409-2.604-2.28c-0.346-1.125-0.064-1.956-0.326-2.714
		c-0.378-1.092-1.125-1.75-1.845-2.062c-0.833-0.361-1.731-0.108-2.822-0.651c-0.973-0.484-1.721-1.751-1.845-2.605
		c-0.283-1.938,1.083-2.815,0.543-4.884c-0.457-1.748-2.806-2.339-3.365-3.69c-0.324-0.784-0.401-1.672-0.109-2.714
		c0.5-1.783,2.76-2.025,2.389-4.884c-0.172-1.326-1.184-1.948-1.411-3.039c-0.309-1.479,0.396-3.114,1.303-3.799
		c0.681-0.516,1.658-0.564,2.388-1.085c0.436-0.312,1.071-0.862,1.303-1.628c0.37-1.225-0.252-2.552,0-3.8
		C6.404,9.47,7.51,8.158,8.974,7.889c0.717-0.131,1.56,0.191,2.497,0c0.785-0.16,1.8-0.822,2.279-1.628
		c0.549-0.923,0.438-1.917,0.869-2.605c0.45-0.72,1.587-1.578,2.931-1.628c1.956-0.073,2.956,1.567,5.101,0.868
		c0.729-0.237,1.019-0.554,1.52-1.085C24.855,1.084,25.455,0.326,26.776,0.074z M20.589,10.929
		c-4.499,1.806-7.876,5.578-9.552,9.661c-1.435,3.491-1.582,7.458-0.761,10.963c1.389,5.927,5.391,9.977,10.421,12.048
		c11.155,4.596,21.885-2.804,23.989-12.265c1.332-5.994-0.897-12.062-3.475-15.197c-3.233-3.933-8.093-6.93-15.196-6.404
		C24.161,9.872,22.268,10.255,20.589,10.929z"/>
	<path fill-rule="evenodd" clip-rule="evenodd" fill="#D59541" d="M7.998,51.743c1.523,1.812,4.854,2.979,7.923,1.955
		c1.09,2.784,3.601,4.717,7.49,4.34c-2.317,9.915-4.756,19.704-7.164,29.525c-2.163-2.795-4.292-5.621-6.404-8.467
		c-3.209,1.495-6.341,3.068-9.552,4.56C2.803,72.96,5.418,62.371,7.998,51.743z"/>
	<path fill-rule="evenodd" clip-rule="evenodd" fill="#D59541" d="M46.748,51.743c2.783,10.46,5.242,21.247,7.816,31.913
		c-3.169-1.499-6.353-2.982-9.444-4.56c-1.959,2.29-3.778,5.021-5.752,7.491c-0.21,0.259-0.387,0.879-0.869,0.76
		c-2.288-9.797-4.771-19.398-7.056-29.2c3.914,0.312,6.417-1.672,7.598-4.449C41.975,54.69,45.372,53.608,46.748,51.743z"/>
</g>
</svg>
