<?xml version="1.0" encoding="utf-8"?>
<!-- Generator: Adobe Illustrator 15.0.0, SVG Export Plug-In . SVG Version: 6.00 Build 0)  -->
<!DOCTYPE svg PUBLIC "-//W3C//DTD SVG 1.1//EN" "http://www.w3.org/Graphics/SVG/1.1/DTD/svg11.dtd">
<svg version="1.1" id="Layer_1" xmlns="http://www.w3.org/2000/svg" xmlns:xlink="http://www.w3.org/1999/xlink" x="0px" y="0px"
	 width="127.558px" height="87.561px" viewBox="-34.587 80.622 127.558 87.561"
	 enable-background="new -34.587 80.622 127.558 87.561" xml:space="preserve">
<g>
	<path fill-rule="evenodd" clip-rule="evenodd" fill="#D59541" d="M-2.889,114.586c8.545-3.767,18.512-7.582,28.302-11.321
		c3.058-1.168,7.89-2.039,7.924-4.905c0.057-4.705-6.943-2.284-10.188-1.132c-5.438,1.931-7.985,3.117-10.566,4.15
		c-8.348,3.34-14.077,4.986-20.755,8.68c-3.812,2.107-9.627,9.591-8.679,16.227c0.258,1.807,2.803,3.69,3.019,6.037
		c0.284,3.09-1.797,3.873-2.264,6.415c-0.841,4.576,1.303,10.869,0.754,16.227c-0.622,6.075-4.302,12.892-9.434,13.208
		c-4.206,0.259-6.029-3.936-9.812-4.528c3.306-5.572,12.98-14.22,11.698-23.396c-0.348-2.486-3.136-3.851-3.396-6.415
		c-0.343-3.372,1.647-5.37,3.774-7.17c0.242-7.054,2.367-12.225,5.283-16.604c-1.468-2.547-14.626-2.664-15.094-6.793
		c-0.45-3.968,11.706-5.921,14.34-6.792c11.425-3.781,20.354-6.812,31.698-10.566c4.268-1.412,11.598-5.351,15.849-5.283
		c5.366,0.086,11.43,3.169,16.604,4.906c10.83,3.636,19.938,6.549,32.075,10.565c4.032,1.335,14.477,4.284,14.717,6.415
		c0.409,3.639-10.701,5.464-14.717,6.793c-10.945,3.622-20.584,6.888-31.698,10.565c-4.594,1.521-11.482,5.162-15.85,5.283
		c-5.571,0.155-11.596-3.501-16.981-5.283C7.895,117.943,2.405,116.432-2.889,114.586z"/>
	<path fill-rule="evenodd" clip-rule="evenodd" fill="#D59541" d="M69.564,119.491c0.693,6.545,2.021,14.781,0,20.377
		c-3.003,8.315-20.154,12.113-31.698,12.831c-18.104,1.124-37.355-2.351-45.283-10.189c4.008-4.61,2.203-14.05-2.264-16.604
		c0.203-2.062,0.552-3.976,0.755-6.038c9.785,3.003,18.881,6.019,29.057,9.435c3.289,1.104,6.886,2.988,9.812,3.019
		c5.198,0.054,13.071-3.838,19.622-6.037C57.028,123.779,63.802,121.468,69.564,119.491z"/>
</g>
</svg>
