<?xml version="1.0" encoding="utf-8"?>
<!-- Generator: Adobe Illustrator 15.0.0, SVG Export Plug-In . SVG Version: 6.00 Build 0)  -->
<!DOCTYPE svg PUBLIC "-//W3C//DTD SVG 1.1//EN" "http://www.w3.org/Graphics/SVG/1.1/DTD/svg11.dtd">
<svg version="1.1" id="Layer_1" xmlns="http://www.w3.org/2000/svg" xmlns:xlink="http://www.w3.org/1999/xlink" x="0px" y="0px"
	 width="117.559px" height="80.695px" viewBox="-24.588 84.056 117.559 80.695"
	 enable-background="new -24.588 84.056 117.559 80.695" xml:space="preserve">
<g>
	<path fill="#D59541" d="M4.626,115.356c7.875-3.472,17.06-6.987,26.083-10.434c2.819-1.076,7.272-1.879,7.302-4.521
		c0.053-4.337-6.398-2.104-9.389-1.043c-5.012,1.78-7.359,2.872-9.738,3.824c-7.693,3.078-12.974,4.596-19.128,8
		c-3.513,1.941-8.873,8.839-7.999,14.955c0.238,1.665,2.583,3.4,2.782,5.562c0.262,2.849-1.656,3.569-2.086,5.912
		c-0.775,4.218,1.201,10.018,0.695,14.956c-0.573,5.599-3.964,11.881-8.694,12.172c-3.876,0.239-5.557-3.628-9.043-4.173
		c3.046-5.136,11.963-13.105,10.781-21.562c-0.32-2.291-2.89-3.55-3.13-5.912c-0.316-3.107,1.519-4.949,3.479-6.607
		c0.223-6.502,2.182-11.268,4.869-15.303c-1.353-2.348-13.479-2.456-13.912-6.261c-0.414-3.657,10.789-5.457,13.217-6.26
		c10.529-3.484,18.758-6.277,29.212-9.737c3.934-1.301,10.689-4.932,14.607-4.869c4.946,0.08,10.534,2.921,15.302,4.522
		c9.981,3.351,18.376,6.035,29.561,9.735c3.717,1.23,13.343,3.949,13.563,5.912c0.377,3.354-9.862,5.036-13.563,6.261
		c-10.087,3.338-18.97,6.348-29.213,9.737c-4.234,1.401-10.582,4.758-14.607,4.868c-5.135,0.144-10.687-3.227-15.65-4.868
		C14.565,118.449,9.505,117.057,4.626,115.356z"/>
	<path fill="#D59541" d="M71.399,119.876c0.638,6.032,1.862,13.622,0,18.78c-2.768,7.662-18.574,11.162-29.213,11.825
		c-16.684,1.035-34.426-2.168-41.733-9.391c3.693-4.249,2.03-12.949-2.086-15.303c0.187-1.9,0.508-3.664,0.696-5.564
		c9.018,2.768,17.4,5.547,26.779,8.695c3.031,1.018,6.347,2.754,9.043,2.781c4.791,0.051,12.047-3.537,18.084-5.562
		C59.846,123.827,66.089,121.698,71.399,119.876z"/>
</g>
</svg>
