<?xml version="1.0" encoding="utf-8"?>
<!-- Generator: Adobe Illustrator 15.0.0, SVG Export Plug-In . SVG Version: 6.00 Build 0)  -->
<!DOCTYPE svg PUBLIC "-//W3C//DTD SVG 1.1//EN" "http://www.w3.org/Graphics/SVG/1.1/DTD/svg11.dtd">
<svg version="1.1" id="Layer_1" xmlns="http://www.w3.org/2000/svg" xmlns:xlink="http://www.w3.org/1999/xlink" x="0px" y="0px"
	 width="78.964px" height="63.977px" viewBox="-4.909 -1.989 78.964 63.977" enable-background="new -4.909 -1.989 78.964 63.977"
	 xml:space="preserve">
<g>
	<path fill="#D59541" d="M22.164-1.989c8.272,0,16.545,0,24.815,0c1.847,0.256,3.446,1.654,3.708,3.384
		c0.282,1.862-0.139,4.281-0.08,6.606c-1.88,0-3.759,0-5.64,0c-0.192-1.146,0.408-3.521-0.403-4.27
		c-0.648-0.599-3.436-0.322-4.835-0.322c-3.754,0-6.812,0-10.394,0c-1.578,0-4.268-0.245-4.835,0.402
		c-0.675,0.775,0.068,3.082-0.321,4.19c-1.881-0.052-3.977,0.108-5.721-0.081c0.271-2.517-0.472-5.352,0.243-7.25
		C19.288-0.899,20.436-1.596,22.164-1.989z"/>
	<path fill="#D59541" d="M-4.909,11.789c26.323,0,52.643,0,78.964,0c0,3.169,0,6.339,0,9.508c-0.88,3.82-4.188,6.009-7.897,7.575
		c-8.689,3.667-20.326,4.673-32.309,4.673c-7.718,0-15.625-0.809-22.32-2.337c-3.139-0.716-6.382-1.666-9.265-3.061
		c-3.292-1.594-6.373-3.488-7.172-7.252C-4.909,17.859-4.909,14.825-4.909,11.789z"/>
	<path fill="#D59541" d="M72.524,61.988c-25.3,0-50.603,0-75.902,0c0-10.261,0-20.521,0-30.78c4.546,2.863,10.37,4.742,16.84,5.962
		c19.341,3.651,45.773,2.433,59.062-5.561C72.524,41.736,72.524,51.863,72.524,61.988z M30.222,43.295
		c-0.022,2.56-0.204,4.597,1.047,6.042c1.502,1.741,4.733,1.954,6.446,0.161c1.257-1.314,1.34-3.603,1.207-6.445
		c-2.874,0-5.749,0-8.621,0C30.209,43.066,30.216,43.181,30.222,43.295z"/>
</g>
</svg>
