<?xml version="1.0" encoding="utf-8"?>
<!-- Generator: Adobe Illustrator 15.0.0, SVG Export Plug-In . SVG Version: 6.00 Build 0)  -->
<!DOCTYPE svg PUBLIC "-//W3C//DTD SVG 1.1//EN" "http://www.w3.org/Graphics/SVG/1.1/DTD/svg11.dtd">
<svg version="1.1" id="Layer_1" xmlns="http://www.w3.org/2000/svg" xmlns:xlink="http://www.w3.org/1999/xlink" x="0px" y="0px"
	 width="574.948px" height="163.225px" viewBox="0 0.001 574.948 163.225" enable-background="new 0 0.001 574.948 163.225"
	 xml:space="preserve">
<g id="Page-1_1_">
	<g id="logo-coral">
		<g id="Page-1">
			<path id="Fill-1" fill="#645A53" d="M529.907,140.222h16.497l28.544-72.335h-16.33l-11.798,36.027l-12.43-36.027h-18.227
				l21.702,52.25L529.907,140.222z M448.024,85.058v37.079H431.38v-54.25h11.695l3.476,4.739c4.529-3.791,9.375-6.004,14.958-6.004
				c7.48,0,13.168,2.213,16.645,7.693c5.056-4.638,10.429-7.693,17.277-7.693c12.851,0,20.331,6.638,20.331,24.651v30.864h-16.645
				V93.17c0-8.322-3.372-10.747-8.745-10.747c-3.159,0-5.791,0.842-8.743,2.739c0.214,1.896,0.317,3.896,0.317,6.11v30.864h-16.644
				V93.17c0-8.322-3.373-10.747-8.85-10.747C453.397,82.423,450.869,83.161,448.024,85.058L448.024,85.058z M389.976,89.693h21.386
				c-1.159-7.057-4.952-10.43-10.64-10.43C395.873,79.264,391.24,82.109,389.976,89.693L389.976,89.693z M401.88,123.191
				c-16.013,0-28.865-7.9-28.865-28.76c0-19.489,12.432-27.915,26.759-27.915c17.275,0,24.966,12.113,24.966,31.18h-34.87
				c1.161,9.375,6.955,12.116,14.646,12.116c7.438,0,13.256-1.835,17.758-4.864l-2.259,13.202
				C415.717,121.471,410.56,123.191,401.88,123.191L401.88,123.191z M339.905,109.182c3.79,0,6.636-0.634,9.584-2.845V82.74
				c-2.632-1.583-5.264-2.317-9.057-2.317c-8.112,0-12.747,5.477-12.747,14.641C327.686,104.02,332.428,109.182,339.905,109.182
				L339.905,109.182z M352.756,118.135c-4.318,3.267-9.268,5.268-16.327,5.268c-14.854,0-25.598-9.164-25.598-28.021
				c0-18.751,12.326-28.864,28.125-28.864c3.688,0,7.271,0.527,10.533,1.79V45.281h16.646v76.856h-10.535L352.756,118.135z
				 M240.307,90.008V49.801h17.275v39.892c0,14.326,6.425,17.275,15.275,17.275c9.587,0,14.537-4.215,14.537-17.275V49.801h17.382
				v40.207c0,23.703-10.323,33.604-32.761,33.604C251.157,123.612,240.307,115.08,240.307,90.008L240.307,90.008z"/>
			<path id="Fill-4" fill="#EA5252" d="M196.279,93.021c-0.7-0.562-1.489-0.939-2.347-1.103c-5.067,5.051-11.25,10.37-16.74,13.946
				c-2.534,1.684-5.72,2.525-7.829,2.525c-4.856,0-6.966-4.631-7.6-11.99c-0.845-9.887-1.415-21.727-1.415-40.028
				c0-18.77-4.26-31.53-15.608-32.531c-0.479-0.042-0.964-0.072-1.471-0.072c-6.966,0-10.344,3.575-14.776,12.621
				c-3.799,7.781-9.71,19.14-20.685,40.595c-9.5,18.511-20.054,34.919-29.132,46.277c-2.528,3.148-4.526,5.312-6.404,6.542
				c-1.254,0.826-2.458,1.239-3.727,1.239c-3.583,0-6.199-3.023-7.073-10.064c-0.208-1.673-0.317-3.572-0.317-5.712
				c0-14.512,5.49-38.072,14.987-72.78c6.966-25.24,4.012-42.486-11.188-42.486c-0.024,0-0.048,0-0.072,0c-0.032,0-0.064,0-0.098,0
				l-0.011,0.003c-3.442,0.04-6.295,1.287-9.044,3.45c-2.707,2.131-5.416,6.734-7.944,12.922
				c-2.85,6.972-20.182,41.735-47.766,59.645c-0.325,6.809,3.53,13.616,11.34,14.353c7.11,0.674,12.158-2.323,18.658-6.689
				c-0.487,2.17-0.938,4.202-1.348,6.057c-0.485,2.193-0.897,4.084-1.228,5.611c-0.495,2.271-0.81,3.734-0.903,4.139
				c-0.903,4.143-1.548,8.077-1.966,11.812c-3.89,34.766,12.225,51.922,31.095,51.922c3.154,0,6.279-0.376,9.382-1.164
				c20.792-5.272,40.808-29.122,64.501-84.025c-0.36,5.972-0.397,11.55-0.139,16.726c1.561,31.467,14.007,40.907,31.591,40.907
				c13.298,0,25.751-6.939,32.084-15.565c4.646-6.1,6.545-12.832,6.545-18.09C199.633,97.934,198.338,94.676,196.279,93.021"/>
		</g>
	</g>
</g>
</svg>
